<?xml version="1.0" encoding="utf-8"?>
<!-- Generator: Adobe Illustrator 19.0.0, SVG Export Plug-In . SVG Version: 6.00 Build 0)  -->
<svg version="1.1" baseProfile="basic" id="Layer_1"
	 xmlns="http://www.w3.org/2000/svg" xmlns:xlink="http://www.w3.org/1999/xlink" x="0px" y="0px" viewBox="0 0 574.072 33.375"
	 xml:space="preserve">
<linearGradient id="SVGID_1_" gradientUnits="userSpaceOnUse" x1="-18.7818" y1="413.088" x2="-17.7818" y2="413.088" gradientTransform="matrix(573.9995 0 0 573.9995 10781.1699 -237095.4219)">
	<stop  offset="0" style="stop-color:#BFBFBE"/>
	<stop  offset="0.4741" style="stop-color:#FFFFFF"/>
	<stop  offset="1" style="stop-color:#BFBFBE"/>
</linearGradient>
<path fill="url(#SVGID_1_)" d="M105.697,32.25l-105.25-19c0,0,116-12.5,282.5-12.5s290.75,10.75,290.75,10.75l-112,21.5
	c0,0-90.5-7.5-182-7.5S106.197,32.25,105.697,32.25z"/>
<path fill="none" stroke="#D0D0D0" stroke-width="0.75" stroke-linejoin="round" stroke-miterlimit="10" d="M105.697,32.25
	l-105.25-19c0,0,116-12.5,282.5-12.5s290.75,10.75,290.75,10.75l-112,21.5c0,0-90.5-7.5-182-7.5S106.197,32.25,105.697,32.25z"/>
<path fill="none" stroke="#010101" stroke-width="3" stroke-linejoin="round" stroke-miterlimit="10" d="M0.197,11.75
	c0,0,77.5-10.25,284-10.25s289.5,10.75,289.5,10.75"/>
<path fill="#010101" d="M281.987,17.515v-5.88h-1.893c-0.053,0.856-0.235,1.859-0.546,3.007c-0.311,1.149-0.657,2.106-1.037,2.873
	H281.987 M283.772,20.245h-0.735V18.25h-5.25v1.995h-0.735v-2.73h0.525c0.479-0.905,0.885-1.961,1.219-3.171
	c0.334-1.209,0.522-2.357,0.566-3.444h3.465v6.615h0.945V20.245z"/>
<path fill="#010101" d="M284.612,17.999V17.2c0.394,0.28,0.845,0.42,1.355,0.42c0.492,0,0.89-0.151,1.194-0.453
	c0.303-0.302,0.469-0.711,0.496-1.227h-2.205v-0.735h2.205c-0.04-0.492-0.209-0.878-0.507-1.157
	c-0.297-0.279-0.694-0.418-1.189-0.418c-0.478,0-0.893,0.14-1.244,0.42v-0.866c0.353-0.193,0.77-0.289,1.25-0.289
	c0.814,0,1.439,0.242,1.875,0.726c0.437,0.484,0.655,1.166,0.655,2.045c0,0.818-0.227,1.471-0.68,1.958
	c-0.453,0.487-1.063,0.731-1.828,0.731C285.459,18.355,285,18.236,284.612,17.999"/>
<path fill="#010101" d="M293.747,18.25h-0.84v-4.515h-1.155c-0.144,1.703-0.392,2.899-0.743,3.587
	c-0.351,0.689-0.823,1.033-1.416,1.033c-0.181,0-0.336-0.025-0.466-0.075v-0.765c0.122,0.07,0.256,0.105,0.4,0.105
	c0.772,0,1.269-1.54,1.49-4.62h2.73V18.25"/>
<polyline fill="#010101" points="298.367,13.735 296.267,13.735 296.267,18.25 295.427,18.25 295.427,13 298.367,13 298.367,13.735 
	"/>
<path fill="#010101" d="M298.997,17.999V17.2c0.394,0.28,0.845,0.42,1.355,0.42c0.492,0,0.89-0.151,1.194-0.453
	c0.303-0.302,0.469-0.711,0.496-1.227h-2.205v-0.735h2.205c-0.04-0.492-0.209-0.878-0.507-1.157
	c-0.297-0.279-0.694-0.418-1.189-0.418c-0.478,0-0.893,0.14-1.244,0.42v-0.866c0.353-0.193,0.77-0.289,1.25-0.289
	c0.814,0,1.439,0.242,1.875,0.726c0.437,0.484,0.655,1.166,0.655,2.045c0,0.818-0.227,1.471-0.68,1.958
	c-0.453,0.487-1.063,0.731-1.829,0.731C299.844,18.355,299.385,18.236,298.997,17.999"/>
<polyline fill="#010101" points="309.392,20.14 308.657,20.14 308.657,18.25 304.247,18.25 304.247,13 305.087,13 305.087,17.515 
	307.817,17.515 307.817,13 308.657,13 308.657,17.515 309.392,17.515 309.392,20.14 "/>
</svg>
